PathFileType	4	(X/Y/Z)	C:\Users\u0145647\OneDrive - KU Leuven\KU Leuven\c3d2osim\CP4\T0\Data\Processed\ViconC3D_CP4_2\CP4_T0_cmj_T1_gapFilled.trc
DataRate	CameraRate	NumFrames	NumMarkers	Units	OrigDataRate	OrigDataStartFrame	OrigNumFrames
100.000000	100.000000	10	47	mm	100.000000	115	459
Frame#	Time	C7			T10			CLAV			STRN			LSHO			RSHO			RBAK			LASI			RASI			LPSI			RPSI			LLAT			RLAT			LF1			LF2			LF3			LTHI			LKNE			LMEK			RF1			RF2			RF3			RTHI			RKNE			RMEK			LT1			LT2			LT3			LTIB			LANK			LMM			RT1			RT2			RT3			RTIB			RANK			RMM			LHEE			LSTL			LLCA			LTOE			LCM5			RHEE			RSTL			RLCA			RTOE			RCM5
		X1	Y1	Z1	X2	Y2	Z2	X3	Y3	Z3	X4	Y4	Z4	X5	Y5	Z5	X6	Y6	Z6	X7	Y7	Z7	X8	Y8	Z8	X9	Y9	Z9	X10	Y10	Z10	X11	Y11	Z11	X12	Y12	Z12	X13	Y13	Z13	X14	Y14	Z14	X15	Y15	Z15	X16	Y16	Z16	X17	Y17	Z17	X18	Y18	Z18	X19	Y19	Z19	X20	Y20	Z20	X21	Y21	Z21	X22	Y22	Z22	X23	Y23	Z23	X24	Y24	Z24	X25	Y25	Z25	X26	Y26	Z26	X27	Y27	Z27	X28	Y28	Z28	X29	Y29	Z29	X30	Y30	Z30	X31	Y31	Z31	X32	Y32	Z32	X33	Y33	Z33	X34	Y34	Z34	X35	Y35	Z35	X36	Y36	Z36	X37	Y37	Z37	X38	Y38	Z38	X39	Y39	Z39	X40	Y40	Z40	X41	Y41	Z41	X42	Y42	Z42	X43	Y43	Z43	X44	Y44	Z44	X45	Y45	Z45	X46	Y46	Z46	X47	Y47	Z47

115	1.14	-140.63	1367.1	-226.49	-119.46	1149.5	-351.34	-138.55	1255.2	-142.14	-136.23	1103.2	-173.83	65.16	1312.1	-154.66	-328.51	1306.5	-187.93	-269.09	1302.8	-284.12	-65.521	857.61	-265.31	-254.71	868	-315.27	-84.819	923.25	-436.76	-153.08	930.4	-456.2	2.0263	924.24	-297.35	-284.01	954.22	-359.84	63.008	654.85	-234.4	56.155	688.24	-265.34	70.276	638.62	-265.32	126.64	584.44	-227.33	83.027	463.47	-161.14	NaN	NaN	NaN	-337.48	622.92	-329.03	-336.37	659.22	-320.58	-322.16	639.88	-377.94	-381.1	564.67	-312.4	-333.77	459.09	-236.81	NaN	NaN	NaN	118.83	308.49	-247.46	107.61	333.67	-192.35	109.56	351.7	-242.15	154.86	231.57	-208.13	121.31	84.305	-324.46	39.792	74.898	-288.24	-354.69	316.62	-286.34	-346.5	354.02	-251.76	-342.42	364.9	-303.13	-404.25	249.98	-295.98	-351.99	72.547	-333.44	-275.82	76.457	-288.47	67.337	61.342	-363.37	47.8	45.918	-295.44	122.08	56.203	-323.49	126.17	48.697	-195.71	165.78	45.115	-221.78	-295.8	63.98	-365.34	-282.13	41.395	-295.26	-354.26	47.506	-328.48	-378.36	45.598	-204.63	-416.11	34.457	-249.66
116	1.15	-138.95	1360.5	-222.62	-118.22	1145.6	-351.05	-136.67	1247.6	-139.79	-134.69	1096.1	-174.12	66.492	1305	-151.57	-326.12	1300	-184.41	-267.78	1297.3	-280.7	-65.037	853.42	-269.75	-253.66	864.04	-320.16	-83.971	920.3	-440.96	-151.98	927.5	-460.42	2.7026	919.8	-301.5	-282.91	950.89	-363.5	64.053	653.05	-237.17	57.14	685.8	-268.28	71.2	636.47	-267.51	127.75	582.73	-228.63	83.689	462.88	-160.53	NaN	NaN	NaN	-337.44	621.07	-331.18	-336.11	657.5	-323.3	-322.28	637.29	-380.42	-381.46	563.32	-313.39	-334.33	458.9	-236.6	NaN	NaN	NaN	119.37	308.08	-246.76	108.09	333.11	-191.66	109.88	351.08	-241.36	154.86	230.77	-207.31	121.91	84.763	-324.66	39.794	74.881	-288.23	-355.05	316.44	-285.88	-346.78	353.72	-251.23	-342.79	364.69	-302.63	-404.46	249.67	-295.38	-351.97	72.589	-333.33	-275.75	76.376	-288.4	67.448	61.376	-363.37	47.805	45.934	-295.48	122.14	56.195	-323.4	126.01	48.574	-195.62	165.65	45.202	-221.7	-295.8	64.029	-365.29	-282.06	41.38	-295.29	-354.19	47.528	-328.39	-378.24	45.614	-204.52	-415.91	34.6	-249.52
117	1.16	-137.16	1353.7	-218.74	-116.99	1141.5	-350.81	-134.93	1239.8	-137.44	-133.12	1088.6	-174.38	67.873	1297.5	-148.38	-323.9	1292.9	-180.78	-266.5	1291.5	-277.21	-64.317	848.98	-274.66	-252.67	860.01	-325.05	-83.075	917.35	-445.14	-151	924.65	-464.72	3.609	915.19	-305.49	-281.84	947.22	-367.22	64.918	651.08	-239.69	58.179	683.54	-271.39	71.986	634.02	-269.71	129	581.05	-230.19	84.289	462.4	-160.05	NaN	NaN	NaN	-337.23	619.14	-333.43	-335.99	655.77	-326.07	-322.31	634.66	-383.01	-381.61	561.99	-314.62	-334.98	458.7	-236.46	NaN	NaN	NaN	119.76	307.7	-246.13	108.73	332.61	-191.04	110.38	350.67	-240.74	154.71	230.35	-206.8	121.97	84.7	-324.62	39.796	74.916	-288.25	-355.52	316.28	-285.58	-346.94	353.53	-250.69	-342.99	364.46	-302.31	-404.67	249.48	-295.05	-351.96	72.6	-333.24	-275.67	76.394	-288.44	67.509	61.388	-363.37	47.763	45.938	-295.55	122.14	56.174	-323.39	125.99	48.727	-195.7	165.51	45.305	-221.64	-295.83	64.081	-365.29	-281.96	41.398	-295.3	-354.18	47.59	-328.33	-378.06	45.652	-204.42	-415.72	34.723	-249.39
118	1.17	-135.45	1346.5	-214.83	-115.75	1137.2	-350.49	-133.01	1231.6	-135.01	-131.61	1080.9	-174.79	69.27	1289.7	-145.34	-321.72	1285.7	-177.14	-265.24	1285.5	-273.7	-63.566	844.34	-279.56	-251.56	855.82	-329.98	-82.218	914.19	-449.36	-149.89	921.63	-468.98	4.5507	910.42	-309.54	-280.7	943.42	-370.96	65.683	649.08	-241.99	59.245	680.88	-274.4	73.012	631.8	-272.18	129.67	579.43	-231.74	84.895	462.01	-159.62	NaN	NaN	NaN	-337.05	617.19	-335.86	-336.04	654.12	-329.11	-322.3	631.99	-385.71	-381.79	560.65	-315.93	-335.32	458.46	-236.45	NaN	NaN	NaN	120.14	307.37	-245.7	108.92	332.27	-190.51	110.96	350.33	-240.26	154.99	229.93	-206.21	122.04	84.611	-324.59	39.859	74.907	-288.29	-355.96	316.25	-285.2	-347.12	353.42	-250.31	-343.33	364.38	-302.01	-404.87	249.3	-294.83	-351.92	72.605	-333.21	-275.61	76.437	-288.53	67.619	61.394	-363.42	47.793	45.934	-295.62	122.2	56.102	-323.38	126.06	48.811	-195.82	165.41	45.322	-221.64	-295.88	64.107	-365.32	-281.93	41.392	-295.35	-354.21	47.641	-328.27	-377.95	45.709	-204.33	-415.55	34.856	-249.25
119	1.18	-133.78	1339	-210.85	-114.44	1133	-350.61	-131.24	1223.2	-132.51	-130.06	1073.1	-175.07	70.617	1281.7	-142.09	-319.51	1278.1	-173.59	-263.87	1279.1	-270.18	-62.752	839.76	-284.3	-250.69	851.47	-334.85	-81.248	911.05	-453.6	-148.9	918.47	-473.1	5.5853	905.59	-313.88	-279.57	939.45	-374.55	66.733	647	-244.84	60.402	678.5	-277.69	73.902	629.09	-274.42	130.76	577.39	-233.24	85.6	461.86	-159.16	NaN	NaN	NaN	-336.81	615.33	-338.12	-335.74	652.24	-332.09	-322.25	629.26	-388.39	-381.8	559.05	-317.43	-335.88	458.27	-236.48	NaN	NaN	NaN	120.51	307.07	-245.25	109.46	332.06	-190	111.66	350.12	-239.7	155.3	229.39	-205.87	122.22	84.58	-324.59	39.925	74.91	-288.33	-356.24	316.16	-285.04	-347.53	353.34	-250	-343.62	364.3	-301.73	-405.09	249.19	-294.52	-351.98	72.622	-333.1	-275.56	76.452	-288.5	67.786	61.369	-363.44	47.86	45.926	-295.67	122.3	56.033	-323.41	126.06	48.792	-195.84	165.43	45.275	-221.61	-295.93	64.152	-365.32	-281.86	41.436	-295.4	-354.2	47.627	-328.21	-377.8	45.712	-204.24	-415.38	34.995	-249.12
120	1.19	-132.06	1331.2	-206.97	-113.1	1128.2	-350.15	-129.49	1214.4	-130.34	-128.49	1064.9	-175.33	71.976	1273.3	-138.84	-317.28	1270.3	-170.03	-262.56	1272.5	-266.6	-62.093	834.95	-288.97	-249.49	846.98	-339.8	-80.342	907.79	-457.79	-147.86	915.32	-477.36	6.616	900.5	-318.2	-278.46	935.25	-378.01	67.905	645.09	-247.73	61.574	675.83	-281.04	74.869	626.88	-277.11	131.67	575.63	-234.39	86.064	461.32	-158.92	NaN	NaN	NaN	-336.58	613.45	-340.6	-335.42	650.35	-335.2	-322.09	626.53	-391.07	-381.82	557.41	-319.21	-336.46	458.06	-236.62	NaN	NaN	NaN	120.78	306.69	-244.83	109.87	331.87	-189.61	112.07	349.83	-239.27	155.51	229.09	-205.67	122.33	84.484	-324.54	39.99	74.893	-288.38	-356.46	315.97	-284.58	-347.82	353.14	-249.57	-343.96	364.19	-301.43	-405.33	248.99	-294.12	-351.93	72.621	-332.99	-275.46	76.443	-288.47	67.892	61.387	-363.44	47.927	45.919	-295.71	122.37	55.929	-323.35	126.06	48.744	-195.84	165.32	45.303	-221.59	-295.95	64.179	-365.25	-281.76	41.355	-295.36	-354.12	47.658	-328.09	-377.49	45.777	-204.01	-415.17	35.113	-248.92
121	1.2	-130.32	1323.2	-203.1	-111.91	1123.5	-349.77	-127.93	1205.3	-128.31	-126.92	1056.6	-175.6	73.313	1264.6	-135.54	-315.26	1262.3	-166.42	-261.21	1265.6	-263	-61.281	830.26	-294.35	-248.49	842.42	-344.62	-79.528	904.44	-461.99	-146.89	912.16	-481.63	7.6863	895.2	-322.37	-277.39	931.03	-381.37	68.969	643.08	-250.59	62.489	673.33	-284.47	75.578	624.26	-279.64	132.77	574.13	-236.7	86.652	461.41	-159.14	NaN	NaN	NaN	-336.38	611.37	-343.3	-335.01	648.33	-338.28	-321.9	623.67	-393.81	-381.91	555.8	-320.97	-337.1	457.85	-236.85	NaN	NaN	NaN	121.16	306.55	-244.78	110.28	331.6	-189.49	112.32	349.59	-239.06	155.69	228.72	-205.53	122.39	84.46	-324.54	40.039	74.902	-288.36	-357.01	315.84	-284.32	-348.44	352.96	-249.28	-344.57	363.91	-301.2	-405.56	248.58	-293.56	-351.9	72.637	-332.89	-275.36	76.349	-288.47	67.933	61.366	-363.43	47.915	45.9	-295.73	122.4	55.952	-323.34	125.96	48.706	-195.86	165.32	45.404	-221.56	-295.91	64.193	-365.25	-281.64	41.393	-295.38	-354.1	47.673	-327.98	-377.32	45.788	-203.9	-414.91	35.27	-248.74
122	1.21	-128.53	1314.8	-199.15	-110.69	1118.2	-348.98	-126.13	1196	-126.01	-125.41	1048	-175.86	74.678	1255.8	-132.18	-313.02	1254	-162.85	-259.76	1258.4	-259.39	-60.428	825.63	-299.4	-247.39	837.9	-349.61	-78.67	901.22	-466.22	-145.81	909.24	-485.55	8.7698	889.91	-326.82	-275.99	926.84	-384.8	69.739	641.16	-253.75	63.487	670.68	-288.08	76.329	621.97	-282.39	133.5	572.15	-238.69	87.074	461.13	-159.25	NaN	NaN	NaN	-336.39	609.24	-346.02	-335	646.31	-341.64	-321.64	620.75	-396.67	-381.98	553.89	-322.99	-337.78	457.61	-237.34	NaN	NaN	NaN	121.44	306.35	-244.76	110.62	331.46	-189.57	112.61	349.41	-239.08	155.78	228.51	-205.47	122.47	84.396	-324.6	40.07	74.951	-288.37	-357.15	315.5	-284.12	-348.8	352.73	-249.2	-345.08	363.65	-301.12	-405.8	248.28	-293.13	-351.85	72.622	-332.89	-275.3	76.337	-288.49	67.974	61.383	-363.46	47.934	45.968	-295.75	122.43	55.905	-323.39	125.92	48.674	-195.9	165.32	45.426	-221.57	-295.95	64.187	-365.26	-281.55	41.354	-295.39	-354.02	47.647	-327.98	-377.2	45.817	-203.85	-414.73	35.405	-248.6
123	1.22	-126.76	1306.3	-195.19	-109.45	1113.1	-348.33	-124.36	1186.4	-123.52	-123.94	1039.4	-176.2	76.026	1246.7	-128.82	-310.71	1245.4	-159.28	-258.34	1251.2	-255.72	-59.574	820.92	-304.25	-246.3	833.38	-354.46	-77.82	897.85	-470.45	-144.84	906.23	-489.79	9.7543	884.5	-331.15	-274.8	922.58	-388.06	70.524	638.91	-256.85	64.36	668.16	-291.5	77.067	619.4	-285.21	134.15	570.6	-240.83	87.642	461.12	-159.61	NaN	NaN	NaN	-336.55	607.23	-348.77	-334.97	644.29	-344.96	-321.44	617.88	-399.63	-382.14	551.91	-325.22	-338.6	457.52	-237.96	NaN	NaN	NaN	121.68	306.34	-244.98	110.75	331.43	-189.77	112.86	349.36	-239.36	156.01	228.52	-205.75	122.01	83.779	-324.41	40.179	75.022	-288.46	-357.63	315.4	-284.21	-349.35	352.62	-249.28	-345.62	363.52	-301.3	-406.13	248.05	-293.21	-351.91	72.609	-332.86	-275.29	76.381	-288.58	68.071	61.318	-363.53	48	46.02	-295.79	122.57	55.839	-323.48	125.96	48.584	-195.99	165.39	45.421	-221.62	-296	64.216	-365.31	-281.5	41.437	-295.49	-354.5	47.87	-327.87	-377.08	45.835	-203.78	-414.59	35.521	-248.46
124	1.23	-125	1297.6	-191.18	-108.09	1107.8	-347.53	-122.75	1177.3	-120.69	-122.44	1030.6	-176.42	77.352	1237.5	-125.36	-308.57	1236.8	-155.67	-256.9	1243.7	-252	-58.781	816.22	-309.02	-245.42	828.88	-359.27	-77.114	894.62	-474.44	-144.01	903.06	-493.94	10.698	879.16	-335.17	-273.62	918.38	-391.39	71.367	636.93	-260.06	65.511	665.63	-295.17	77.759	617.05	-287.86	134.84	568.72	-242.68	88.004	461.11	-159.91	NaN	NaN	NaN	-336.66	605.28	-351.6	-334.9	642.44	-348.25	-321.26	615.17	-402.61	-382.11	550.07	-327.42	-339.42	457.47	-238.77	NaN	NaN	NaN	121.83	306.41	-245.36	111.12	331.53	-190.2	113.01	349.44	-239.85	156.47	228.76	-206.24	122.12	83.721	-324.48	40.289	75.067	-288.49	-358.41	315.49	-284.42	-350.17	352.7	-249.55	-346.11	363.47	-301.54	-406.58	247.86	-293.4	-351.96	72.562	-332.86	-275.3	76.535	-288.7	68.172	61.319	-363.58	48.116	46.05	-295.84	122.68	55.783	-323.59	126.02	48.52	-196.08	165.49	45.301	-221.73	-296.1	64.208	-365.36	-281.51	41.502	-295.57	-354.01	47.622	-327.93	-377	45.864	-203.73	-414.44	35.62	-248.37
